<svg xmlns="http://www.w3.org/2000/svg" version="1.1" xmlns:xlink="http://www.w3.org/1999/xlink" xmlns:svgjs="http://svgjs.dev/svgjs" width="1000" height="1000"><svg viewBox="0 0 1000 1000" version="1.1" xmlns="http://www.w3.org/2000/svg" xmlns:xlink="http://www.w3.org/1999/xlink" xml:space="preserve" xmlns:serif="http://www.serif.com/" style="fill-rule:evenodd;clip-rule:evenodd;stroke-linejoin:round;stroke-miterlimit:2;"><path id="SvgjsPath1006" d="M1000,100l0,800c0,55.192 -44.808,100 -100,100l-800,-0c-55.192,-0 -100,-44.808 -100,-100l0,-800c0,-55.192 44.808,-100 100,-100l800,0c55.192,0 100,44.808 100,100Z" style="fill:#1d3557;"></path><g><path d="M195.782,484.691c-7.854,-2.093 -16.749,-6.411 -26.686,-12.955c-9.947,-6.543 -18.583,-14.915 -25.909,-25.116c-7.325,-10.201 -10.988,-21.58 -10.988,-34.138c-0,-5.762 1.046,-11.517 3.139,-17.268c0,-0.528 0.132,-2.363 0.397,-5.502c0.264,-3.14 0.655,-5.756 1.173,-7.849c5.761,-26.163 19.107,-47.743 40.037,-64.741c20.93,-17.008 46.57,-30.222 76.919,-39.64c30.348,-9.419 62.003,-15.175 94.963,-17.268c6.279,-0.528 12.558,-0.793 18.837,-0.793l18.837,0c36.628,0 72.997,2.358 109.107,7.072c36.099,4.704 68.932,9.281 98.499,13.732c29.566,4.45 52.981,6.934 70.243,7.452c14.651,-15.169 25.38,-23.541 32.188,-25.116c1.565,-0.518 3.917,-0.777 7.056,-0.777c5.761,-0 10.994,1.437 15.698,4.313c4.714,2.875 7.072,6.929 7.072,12.161c-0,4.715 -2.093,9.165 -6.279,13.351c-3.669,3.658 -9.424,8.103 -17.268,13.336c-7.854,5.232 -15.444,11.775 -22.769,19.63c-10.466,10.465 -19.884,22.235 -28.256,35.311c-8.372,13.087 -12.558,25.645 -12.558,37.675c-0,8.9 2.093,16.49 6.279,22.769c1.046,1.047 1.569,2.093 1.569,3.14c0,4.186 -2.093,6.279 -6.279,6.279c-3.657,-0 -7.579,-2.093 -11.765,-6.279c-4.186,-5.233 -6.279,-16.485 -6.279,-33.758c-0,-10.465 1.046,-21.713 3.14,-33.742c2.093,-12.04 5.755,-23.029 10.988,-32.965c2.093,-3.668 5.1,-7.987 9.022,-12.955c3.922,-4.968 6.929,-8.763 9.022,-11.385c-37.674,-0.518 -75.872,-2.611 -114.593,-6.279c-38.721,-3.657 -76.918,-5.486 -114.593,-5.486c-17.79,0 -37.674,1.179 -59.651,3.536c-21.977,2.347 -44.477,6.136 -67.5,11.369c-23.023,5.233 -44.477,12.69 -64.36,22.373c-19.884,9.683 -36.887,21.586 -51.01,35.708c-14.133,14.134 -23.293,31.142 -27.479,51.026c-0.518,2.093 -0.909,3.922 -1.173,5.486c-0.264,1.575 -0.397,3.145 -0.397,4.709c0,9.947 3.008,18.32 9.023,25.117c6.025,6.807 12.96,12.436 20.803,16.886c7.854,4.44 13.874,8.494 18.06,12.162c3.658,2.093 5.487,4.186 5.487,6.279c-0,2.093 -1.179,3.399 -3.536,3.917c-2.347,0.528 -5.09,0.269 -8.23,-0.777m77.696,251.94c-1.565,-0 -4.704,-0.524 -9.419,-1.57c-4.704,-1.047 -9.149,-2.352 -13.335,-3.917c-4.186,-1.575 -6.543,-3.409 -7.072,-5.502c-1.564,-9.936 0.92,-24.191 7.453,-42.764c6.543,-18.584 15.179,-39.123 25.909,-61.617c10.729,-22.506 21.976,-45.006 33.742,-67.5c11.776,-22.506 22.637,-42.781 32.584,-60.825c9.937,-18.055 17.263,-31.792 21.977,-41.21c4.186,-8.901 6.279,-16.227 6.279,-21.977c0,-2.622 -0.132,-4.583 -0.396,-5.883c-0.264,-1.311 -0.656,-2.489 -1.174,-3.536c1.047,-6.279 4.969,-14.651 11.766,-25.116c6.807,-10.465 15.179,-20.93 25.116,-31.395c9.947,-10.465 20.544,-19.229 31.792,-26.29c11.247,-7.072 22.103,-10.608 32.568,-10.608c3.14,0 8.637,1.179 16.491,3.536c7.844,2.357 14.905,6.152 21.184,11.385c6.279,5.233 8.895,12.035 7.849,20.407c-3.658,-2.622 -6.797,-3.932 -9.419,-3.932c-12.029,-0 -25.111,5.755 -39.244,17.267c-14.123,11.512 -28.642,26.95 -43.557,46.316c-14.916,19.355 -29.567,40.545 -43.954,63.568c-14.386,23.023 -27.859,46.178 -40.417,69.466c-12.558,23.287 -23.547,44.741 -32.965,64.36c-9.419,19.62 -16.744,35.45 -21.977,47.49c-2.093,5.232 -3.663,9.942 -4.709,14.128c-1.047,4.186 -1.57,7.584 -1.57,10.195c-0,7.326 2.616,10.989 7.849,10.989c3.657,-0 7.579,-1.438 11.765,-4.313c4.186,-2.875 8.113,-6.406 11.781,-10.592c5.751,-6.808 10.983,-13.219 15.698,-19.234c4.704,-6.015 8.89,-8.499 12.558,-7.452c0.518,0.518 0.777,1.3 0.777,2.346c0,3.14 -1.57,6.803 -4.709,10.989c-3.14,4.186 -4.969,6.543 -5.487,7.072c-4.186,5.232 -9.291,12.294 -15.317,21.184c-6.014,8.9 -12.42,16.881 -19.217,23.943c-6.808,7.061 -13.875,10.592 -21.2,10.592" style="fill:#f1faee;fill-rule:nonzero;"></path><path d="M554.466,751.551c-27.209,0 -52.193,-4.577 -74.952,-13.731c-22.759,-9.165 -40.814,-23.293 -54.165,-42.384c-13.341,-19.101 -20.011,-43.568 -20.011,-73.398c0,-16.745 2.358,-34.794 7.072,-54.15c7.326,-30.877 19.487,-61.749 36.485,-92.616c17.009,-30.877 37.416,-59.921 61.221,-87.13c23.816,-27.209 49.852,-51.406 78.108,-72.59c28.256,-21.194 57.426,-37.938 87.511,-50.232c30.084,-12.305 60.042,-18.457 89.873,-18.457c8.89,0 18.044,0.788 27.463,2.363c20.93,3.657 36.496,11.374 46.696,23.15c10.212,11.776 15.318,25.248 15.318,40.417c-0,17.791 -5.756,35.582 -17.268,53.372c-11.512,17.791 -26.559,34.667 -45.143,50.629c-18.573,15.962 -38.715,30.222 -60.428,42.781c-21.712,12.558 -43.034,22.759 -63.964,30.602c-20.93,7.854 -39.508,12.305 -55.734,13.351c-9.937,0.518 -14.905,-2.363 -14.905,-8.642c-0,-3.139 1.696,-6.406 5.09,-9.799c3.403,-3.404 8.245,-5.37 14.524,-5.898c40.814,-3.658 78.879,-16.084 114.196,-37.278c35.328,-21.195 62.411,-50.106 81.248,-86.734c4.186,-7.843 7.452,-15.819 9.799,-23.927c2.357,-8.118 3.536,-15.84 3.536,-23.166c-0,-11.512 -3.272,-21.321 -9.815,-29.429c-6.533,-8.108 -17.912,-12.162 -34.139,-12.162c-17.79,0 -38.72,5.365 -62.79,16.094c-24.07,10.719 -49.318,25.761 -75.745,45.127c-26.417,19.355 -52.315,42.246 -77.696,68.673c-25.381,26.427 -48.145,55.207 -68.293,86.338c-20.137,31.131 -35.703,63.964 -46.696,98.499c-6.798,20.93 -10.196,40.29 -10.196,58.081c-0,31.924 10.988,55.344 32.965,70.259c21.977,14.905 50.492,22.357 85.544,22.357c30.349,0 63.706,-5.232 100.069,-15.697c36.374,-10.466 71.829,-26.554 106.364,-48.267c34.535,-21.712 63.573,-49.313 87.114,-82.801c1.575,-2.093 3.409,-3.14 5.502,-3.14c2.093,0 4.054,1.047 5.883,3.14c1.829,2.093 1.961,4.186 0.396,6.279c-27.209,37.674 -58.478,68.282 -93.805,91.823c-35.317,23.552 -71.813,40.82 -109.488,51.803c-37.674,10.993 -73.255,16.49 -106.744,16.49" style="fill:#f1faee;fill-rule:nonzero;"></path></g></svg><style>@media (prefers-color-scheme: light) { :root { filter: none; } }
@media (prefers-color-scheme: dark) { :root { filter: none; } }
</style></svg>